{"title":"The Gods Must Be Crazy I (1980)","uid":7424649,"size":743329802,"categoryP":"video","categoryS":"movies","magnet":"?xt=urn:btih:8dacb2c7322bd6ec887868cdccf5b3342f696dab&amp;dn=The+Gods+Must+Be+Crazy+I+%281980%29&amp;tr=udp%3A%2F%2Ftracker.openbittorrent.com%3A80&amp;tr=udp%3A%2F%2Fopen.demonii.com%3A1337&amp;tr=udp%3A%2F%2Ftracker.coppersurfer.tk%3A6969&amp;tr=udp%3A%2F%2Fexodus.desync.com%3A6969","seeders":0,"leechers":1,"uploader":"51nikpav","files":2,"time":1341769585,"description":"CrazyThe Gods Must be Crazy.avi\nFormat                           : AVI\nFormat/Info                      : Audio Video Interleave\nFile size                        : 709 MiB\nDuration                         : 1h 44mn\nOverall bit rate                 : 949 Kbps\n\nVideo\nID                               : 0\nFormat                           : MPEG-4 Visual\nFormat profile                   : Simple@L1\nFormat settings, BVOP            : No\nFormat settings, QPel            : No\nFormat settings, GMC             : No warppoints\nFormat settings, Matrix          : Default (H.263)\nCodec ID                         : DX50\nCodec ID/Hint                    : DivX 5\nDuration                         : 1h 44mn\nBit rate                         : 809 Kbps\nWidth                            : 720 pixels\nHeight                           : 304 pixels\nDisplay aspect ratio             : 2.35:1\nFrame rate                       : 25.000 fps\nColor space                      : YUV\nChroma subsampling               : 4:2:0\nBit depth                        : 8 bits\nScan type                        : Progressive\nCompression mode                 : Lossy\nBits/(Pixel*Frame)               : 0.148\nStream size                      : 604 MiB (85%)\nWriting library                  : FFmpeg0.4.8b4680\n\nAudio\nID                               : 1\nFormat                           : MPEG Audio\nFormat version                   : Version 1\nFormat profile                   : Layer 3\nMode                             : Joint stereo\nMode extension                   : MS Stereo\nCodec ID                         : 55\nCodec ID/Hint                    : MP3\nDuration                         : 1h 44mn\nBit rate mode                    : Constant\nBit rate                         : 128 Kbps\nChannel(s)                       : 2 channels\nSampling rate                    : 44.1 KHz\nCompression mode                 : Lossy\nDelay relative to video          : 26ms\nStream size                      : 95.6 MiB (13%)\nAlignment                        : Split accross interleaves\nInterleave, duration             : 26 ms (0.65 video frame)\nWriting library                  : LAME3.96\n\nsub srt greek","torrent":{"xt":"urn:btih:8dacb2c7322bd6ec887868cdccf5b3342f696dab","amp;dn":"The+Gods+Must+Be+Crazy+I+%281980%29","amp;tr":["udp%3A%2F%2Ftracker.openbittorrent.com%3A80","udp%3A%2F%2Fopen.demonii.com%3A1337","udp%3A%2F%2Ftracker.coppersurfer.tk%3A6969","udp%3A%2F%2Fexodus.desync.com%3A6969"],"infoHash":"8dacb2c7322bd6ec887868cdccf5b3342f696dab","infoHashBuffer":{"type":"Buffer","data":[141,172,178,199,50,43,214,236,136,120,104,205,204,245,179,52,47,105,109,171]},"announce":[],"urlList":[]}}